<svg width="590" height="69" viewBox="0 0 590 69" fill="none" xmlns="http://www.w3.org/2000/svg">
<path d="M10.8164 20.1094C13.5117 16.875 16.8984 15.2578 20.9766 15.2578C29.2266 15.2578 33.4102 20.0508 33.5273 29.6367V54H23.3672V29.918C23.3672 27.7383 22.8984 26.1328 21.9609 25.1016C21.0234 24.0469 19.4648 23.5195 17.2852 23.5195C14.3086 23.5195 12.1523 24.668 10.8164 26.9648V54H0.65625V0H10.8164V20.1094ZM39.6094 34.6289C39.6094 30.8555 40.3359 27.4922 41.7891 24.5391C43.2422 21.5859 45.3281 19.3008 48.0469 17.6836C50.7891 16.0664 53.9648 15.2578 57.5742 15.2578C62.707 15.2578 66.8906 16.8281 70.125 19.9688C73.3828 23.1094 75.1992 27.375 75.5742 32.7656L75.6445 35.3672C75.6445 41.2031 74.0156 45.8906 70.7578 49.4297C67.5 52.9453 63.1289 54.7031 57.6445 54.7031C52.1602 54.7031 47.7773 52.9453 44.4961 49.4297C41.2383 45.9141 39.6094 41.1328 39.6094 35.0859V34.6289ZM49.7695 35.3672C49.7695 38.9766 50.4492 41.7422 51.8086 43.6641C53.168 45.5625 55.1133 46.5117 57.6445 46.5117C60.1055 46.5117 62.0273 45.5742 63.4102 43.6992C64.793 41.8008 65.4844 38.7773 65.4844 34.6289C65.4844 31.0898 64.793 28.3477 63.4102 26.4023C62.0273 24.457 60.082 23.4844 57.5742 23.4844C55.0898 23.4844 53.168 24.457 51.8086 26.4023C50.4492 28.3242 49.7695 31.3125 49.7695 35.3672ZM91.4297 15.9609L91.7461 20.2148C94.4414 16.9102 98.0859 15.2578 102.68 15.2578C107.578 15.2578 110.941 17.1914 112.77 21.0586C115.441 17.1914 119.25 15.2578 124.195 15.2578C128.32 15.2578 131.391 16.4648 133.406 18.8789C135.422 21.2695 136.43 24.8789 136.43 29.707V54H126.234V29.7422C126.234 27.5859 125.812 26.0156 124.969 25.0312C124.125 24.0234 122.637 23.5195 120.504 23.5195C117.457 23.5195 115.348 24.9727 114.176 27.8789L114.211 54H104.051V29.7773C104.051 27.5742 103.617 25.9805 102.75 24.9961C101.883 24.0117 100.406 23.5195 98.3203 23.5195C95.4375 23.5195 93.3516 24.7148 92.0625 27.1055V54H81.9023V15.9609H91.4297ZM161.777 54.7031C156.199 54.7031 151.652 52.9922 148.137 49.5703C144.645 46.1484 142.898 41.5898 142.898 35.8945V34.9102C142.898 31.0898 143.637 27.6797 145.113 24.6797C146.59 21.6562 148.676 19.3359 151.371 17.7188C154.09 16.0781 157.184 15.2578 160.652 15.2578C165.855 15.2578 169.945 16.8984 172.922 20.1797C175.922 23.4609 177.422 28.1133 177.422 34.1367V38.2852H153.199C153.527 40.7695 154.512 42.7617 156.152 44.2617C157.816 45.7617 159.914 46.5117 162.445 46.5117C166.359 46.5117 169.418 45.0938 171.621 42.2578L176.613 47.8477C175.09 50.0039 173.027 51.6914 170.426 52.9102C167.824 54.1055 164.941 54.7031 161.777 54.7031ZM160.617 23.4844C158.602 23.4844 156.961 24.1641 155.695 25.5234C154.453 26.8828 153.656 28.8281 153.305 31.3594H167.438V30.5508C167.391 28.3008 166.781 26.5664 165.609 25.3477C164.438 24.1055 162.773 23.4844 160.617 23.4844ZM192.75 15.9609L193.066 20.2148C195.762 16.9102 199.406 15.2578 204 15.2578C208.898 15.2578 212.262 17.1914 214.09 21.0586C216.762 17.1914 220.57 15.2578 225.516 15.2578C229.641 15.2578 232.711 16.4648 234.727 18.8789C236.742 21.2695 237.75 24.8789 237.75 29.707V54H227.555V29.7422C227.555 27.5859 227.133 26.0156 226.289 25.0312C225.445 24.0234 223.957 23.5195 221.824 23.5195C218.777 23.5195 216.668 24.9727 215.496 27.8789L215.531 54H205.371V29.7773C205.371 27.5742 204.938 25.9805 204.07 24.9961C203.203 24.0117 201.727 23.5195 199.641 23.5195C196.758 23.5195 194.672 24.7148 193.383 27.1055V54H183.223V15.9609H192.75ZM267.633 54C267.164 53.0859 266.824 51.9492 266.613 50.5898C264.152 53.332 260.953 54.7031 257.016 54.7031C253.289 54.7031 250.195 53.625 247.734 51.4688C245.297 49.3125 244.078 46.5938 244.078 43.3125C244.078 39.2812 245.566 36.1875 248.543 34.0312C251.543 31.875 255.867 30.7852 261.516 30.7617H266.191V28.582C266.191 26.8242 265.734 25.418 264.82 24.3633C263.93 23.3086 262.512 22.7812 260.566 22.7812C258.855 22.7812 257.508 23.1914 256.523 24.0117C255.562 24.832 255.082 25.957 255.082 27.3867H244.922C244.922 25.1836 245.602 23.1445 246.961 21.2695C248.32 19.3945 250.242 17.9297 252.727 16.875C255.211 15.7969 258 15.2578 261.094 15.2578C265.781 15.2578 269.496 16.4414 272.238 18.8086C275.004 21.1523 276.387 24.457 276.387 28.7227V45.2109C276.41 48.8203 276.914 51.5508 277.898 53.4023V54H267.633ZM259.23 46.9336C260.73 46.9336 262.113 46.6055 263.379 45.9492C264.645 45.2695 265.582 44.3672 266.191 43.2422V36.7031H262.395C257.309 36.7031 254.602 38.4609 254.273 41.9766L254.238 42.5742C254.238 43.8398 254.684 44.8828 255.574 45.7031C256.465 46.5234 257.684 46.9336 259.23 46.9336ZM282.609 34.6992C282.609 28.7695 283.934 24.0469 286.582 20.5312C289.254 17.0156 292.898 15.2578 297.516 15.2578C301.219 15.2578 304.277 16.6406 306.691 19.4062V0H316.887V54H307.711L307.219 49.957C304.688 53.1211 301.43 54.7031 297.445 54.7031C292.969 54.7031 289.371 52.9453 286.652 49.4297C283.957 45.8906 282.609 40.9805 282.609 34.6992ZM292.77 35.4375C292.77 39 293.391 41.7305 294.633 43.6289C295.875 45.5273 297.68 46.4766 300.047 46.4766C303.188 46.4766 305.402 45.1523 306.691 42.5039V27.4922C305.426 24.8438 303.234 23.5195 300.117 23.5195C295.219 23.5195 292.77 27.4922 292.77 35.4375ZM342.27 54.7031C336.691 54.7031 332.145 52.9922 328.629 49.5703C325.137 46.1484 323.391 41.5898 323.391 35.8945V34.9102C323.391 31.0898 324.129 27.6797 325.605 24.6797C327.082 21.6562 329.168 19.3359 331.863 17.7188C334.582 16.0781 337.676 15.2578 341.145 15.2578C346.348 15.2578 350.438 16.8984 353.414 20.1797C356.414 23.4609 357.914 28.1133 357.914 34.1367V38.2852H333.691C334.02 40.7695 335.004 42.7617 336.645 44.2617C338.309 45.7617 340.406 46.5117 342.938 46.5117C346.852 46.5117 349.91 45.0938 352.113 42.2578L357.105 47.8477C355.582 50.0039 353.52 51.6914 350.918 52.9102C348.316 54.1055 345.434 54.7031 342.27 54.7031ZM341.109 23.4844C339.094 23.4844 337.453 24.1641 336.188 25.5234C334.945 26.8828 334.148 28.8281 333.797 31.3594H347.93V30.5508C347.883 28.3008 347.273 26.5664 346.102 25.3477C344.93 24.1055 343.266 23.4844 341.109 23.4844ZM415.922 35.332C415.922 41.4258 414.621 46.1836 412.02 49.6055C409.418 53.0039 405.785 54.7031 401.121 54.7031C396.996 54.7031 393.703 53.1211 391.242 49.957L390.785 54H381.645V0H391.805V19.3711C394.148 16.6289 397.23 15.2578 401.051 15.2578C405.691 15.2578 409.324 16.9688 411.949 20.3906C414.598 23.7891 415.922 28.582 415.922 34.7695V35.332ZM405.762 34.5938C405.762 30.75 405.152 27.9492 403.934 26.1914C402.715 24.4102 400.898 23.5195 398.484 23.5195C395.25 23.5195 393.023 24.8438 391.805 27.4922V42.5039C393.047 45.1758 395.297 46.5117 398.555 46.5117C401.836 46.5117 403.992 44.8945 405.023 41.6602C405.516 40.1133 405.762 37.7578 405.762 34.5938ZM444.996 50.1328C442.488 53.1797 439.02 54.7031 434.59 54.7031C430.512 54.7031 427.395 53.5312 425.238 51.1875C423.105 48.8438 422.016 45.4102 421.969 40.8867V15.9609H432.129V40.5352C432.129 44.4961 433.934 46.4766 437.543 46.4766C440.988 46.4766 443.355 45.2812 444.645 42.8906V15.9609H454.84V54H445.277L444.996 50.1328ZM483.879 25.4883C482.496 25.3008 481.277 25.207 480.223 25.207C476.379 25.207 473.859 26.5078 472.664 29.1094V54H462.504V15.9609H472.102L472.383 20.4961C474.422 17.0039 477.246 15.2578 480.855 15.2578C481.98 15.2578 483.035 15.4102 484.02 15.7148L483.879 25.4883ZM486.621 34.6992C486.621 28.8633 488.004 24.1641 490.77 20.6016C493.559 17.0391 497.309 15.2578 502.02 15.2578C506.191 15.2578 509.438 16.6875 511.758 19.5469L512.18 15.9609H521.391V52.7344C521.391 56.0625 520.629 58.957 519.105 61.418C517.605 63.8789 515.484 65.7539 512.742 67.043C510 68.332 506.789 68.9766 503.109 68.9766C500.32 68.9766 497.602 68.4141 494.953 67.2891C492.305 66.1875 490.301 64.7578 488.941 63L493.441 56.8125C495.973 59.6484 499.043 61.0664 502.652 61.0664C505.348 61.0664 507.445 60.3398 508.945 58.8867C510.445 57.457 511.195 55.418 511.195 52.7695V50.7305C508.852 53.3789 505.77 54.7031 501.949 54.7031C497.379 54.7031 493.676 52.9219 490.84 49.3594C488.027 45.7734 486.621 41.0273 486.621 35.1211V34.6992ZM496.781 35.4375C496.781 38.8828 497.473 41.5898 498.855 43.5586C500.238 45.5039 502.137 46.4766 504.551 46.4766C507.645 46.4766 509.859 45.3164 511.195 42.9961V27C509.836 24.6797 507.645 23.5195 504.621 23.5195C502.184 23.5195 500.262 24.5156 498.855 26.5078C497.473 28.5 496.781 31.4766 496.781 35.4375ZM546.738 54.7031C541.16 54.7031 536.613 52.9922 533.098 49.5703C529.605 46.1484 527.859 41.5898 527.859 35.8945V34.9102C527.859 31.0898 528.598 27.6797 530.074 24.6797C531.551 21.6562 533.637 19.3359 536.332 17.7188C539.051 16.0781 542.145 15.2578 545.613 15.2578C550.816 15.2578 554.906 16.8984 557.883 20.1797C560.883 23.4609 562.383 28.1133 562.383 34.1367V38.2852H538.16C538.488 40.7695 539.473 42.7617 541.113 44.2617C542.777 45.7617 544.875 46.5117 547.406 46.5117C551.32 46.5117 554.379 45.0938 556.582 42.2578L561.574 47.8477C560.051 50.0039 557.988 51.6914 555.387 52.9102C552.785 54.1055 549.902 54.7031 546.738 54.7031ZM545.578 23.4844C543.562 23.4844 541.922 24.1641 540.656 25.5234C539.414 26.8828 538.617 28.8281 538.266 31.3594H552.398V30.5508C552.352 28.3008 551.742 26.5664 550.57 25.3477C549.398 24.1055 547.734 23.4844 545.578 23.4844ZM589.559 25.4883C588.176 25.3008 586.957 25.207 585.902 25.207C582.059 25.207 579.539 26.5078 578.344 29.1094V54H568.184V15.9609H577.781L578.062 20.4961C580.102 17.0039 582.926 15.2578 586.535 15.2578C587.66 15.2578 588.715 15.4102 589.699 15.7148L589.559 25.4883Z" fill="#FFC700"/>
</svg>
